<?xml version="1.0" encoding="UTF-8"?>
<svg id="dino_const" xmlns="http://www.w3.org/2000/svg" width="515.58" height="503.64" xmlns:xlink="http://www.w3.org/1999/xlink" viewBox="0 0 515.58 503.64">
  <defs>
    <style>
      .cls-1 {
        fill: none;
      }

      .cls-2 {
        clip-path: url(#clippath);
      }

      .cls-3 {
        fill: #ff8585;
      }

      .cls-4 {
        fill: #3030d1;
      }

      .cls-5 {
        fill: #433eff;
      }

      .cls-6 {
        fill: #35a070;
      }
    </style>
    <clipPath id="clippath">
      <path class="cls-1" d="M196.44,326.59l3.48,20.33c.77,4.48,5.48,7.08,9.69,5.36,10.66-4.35,28.46-15.43,55.34-14.57,30.4,.97,41.7,3.48,73.14,38.41,29.44,32.72,39.28,61.19,86.24,79.85,3.04,1.21,1.7,5.95-1.58,5.95l-76.44-35.3c-8.29-2.93-11.92-3.72-20.59-2.26-12.86,2.17-33.8,1.86-54.91,1.86-16.38,0-42.65,1.06-66.51-3.59-27.65-5.39-47.52-29.76-47.72-57.92l-.23-32.45"/>
    </clipPath>
  </defs>
  <g id="Neck">
    <g id="Mane">
      <path class="cls-6" d="M183.03,238.88l14.4,2.28c3.01,.48,3.49,4.61,.67,5.76l-13.26,5.43-1.81-13.48Z"/>
      <path class="cls-6" d="M184.87,255.31l14.4,2.28c3.01,.48,3.49,4.61,.67,5.76l-13.26,5.43-1.81-13.48Z"/>
      <path class="cls-6" d="M186.75,271.75l14.4,2.28c3.01,.48,3.49,4.61,.67,5.76l-13.26,5.43-1.81-13.48Z"/>
      <path class="cls-6" d="M188.06,288.27l14.4,2.28c3.01,.48,3.49,4.61,.67,5.76l-13.26,5.43-1.81-13.48Z"/>
    </g>
    <path class="cls-5" d="M196.39,338.2l-12.03-99.67c-.81-5.59-5.6-9.74-11.24-9.74h-15.43c-4.78,0-9.05,2.99-10.68,7.48l-3.48,9.57c-1.01,2.79-.78,5.88,.63,8.49,.05,.09,.11,.17,.18,.24l10.48,10.48c.07,.07,.14,.16,.18,.25,.96,1.78,1.39,3.79,1.22,5.81l.13,62.44c-.5,6.05,3.96,10.97,10.02,10.97l21.18-.93c6.32,0,9.73,.86,8.83-5.4Z"/>
  </g>
  <g id="Body">
    <g id="Back_legs" data-name="Back legs">
      <path class="cls-4" d="M163.61,381.39l-2.11,84.1h0c-5.53,0-10.01,4.48-10.01,10.01v.1h23.75c5.79,0,10.68-4.3,11.41-10.05l8.99-84.17h-32.03Z"/>
      <path class="cls-4" d="M273.91,395.03l-2.11,70.39h0c-5.53,0-10.01,4.48-10.01,10.01v.1h23.75c5.79,0,10.68-4.3,11.41-10.05l8.99-70.45h-32.03Z"/>
    </g>
    <g id="Body-2" data-name="Body">
      <path class="cls-5" d="M195.01,326.59l2.42,12.95c.77,4.48,5.48,7.08,9.69,5.36,10.66-4.35,21.79-12.4,50.53-12.4,30.41,0,48.99,8.68,80.43,43.62,15.8,17.56,59.81,64.36,87.3,79.85,3.3,1.86,2.62,7.01-2.63,5.95l-84.33-39.96s-33.6,3.2-67.61,3.2c-16.38,0-42.65,2.11-66.51-2.54-27.65-5.39-47.52-29.76-47.72-57.92l-.23-32.45"/>
    </g>
    <g id="Belly">
      <g class="cls-2">
        <path class="cls-3" d="M156.46,347.71s6.5-4.69,12.06,7.65c2.85,6.32,3.18,28.28,6.97,34.42,4.62,7.48,14.77,12.08,18.91,14.89,4.29,2.92,9.39,4.4,14.57,4.4l122.78,4.22c.47,0,.93,0,1.4,0,9.97,.09,19.79,6.67,28.75,11.06l60.87,37.56-6.44,12.12-170.73-32.96-92.61-7.31-7.96-61.35,11.45-24.71Z"/>
      </g>
    </g>
    <g id="Legs">
      <path class="cls-5" d="M178.73,377.01l-2.11,92.54h0c-5.53,0-10.01,4.48-10.01,10.01v.1h23.75c5.79,0,10.68-4.3,11.41-10.05l8.99-92.61h-32.03Z"/>
      <path class="cls-5" d="M289.03,399.09l-2.11,70.39h0c-5.53,0-10.01,4.48-10.01,10.01v.1h23.75c5.79,0,10.68-4.3,11.41-10.05l8.99-70.45h-32.03Z"/>
    </g>
  </g>
</svg>