<?xml version="1.0" encoding="UTF-8"?>
<svg id="dino8" xmlns="http://www.w3.org/2000/svg" width="515.58" height="503.64" viewBox="0 0 515.58 503.64">
  <defs>
    <style>
      .cls-1 {
        fill: #fda4ff;
      }

      .cls-2 {
        fill: #5050ff;
      }

      .cls-3 {
        fill: #35a070;
      }

      .cls-4 {
        fill: #fff;
      }

      .cls-4, .cls-5 {
        stroke: #000;
      }

      .cls-4, .cls-5, .cls-6 {
        stroke-linecap: round;
        stroke-miterlimit: 10;
        stroke-width: 2px;
      }

      .cls-5, .cls-6 {
        fill: none;
      }

      .cls-6 {
        stroke: #35a070;
      }
    </style>
  </defs>
  <g id="Leaf1_copy_8" data-name="Leaf1 copy 8">
    <g>
      <path class="cls-6" d="M107.07,355.3s-2.76-5.15-3.88-8.84c-1.24-4.1-1.5-7.28-1.5-7.28"/>
      <path class="cls-3" d="M105.86,370.59s-3.36-4.12-3.17-7.82,4.01-8.33,4.01-8.33c0,0,3.16,5.48,3.02,8.25-.14,2.77-3.86,7.9-3.86,7.9Z"/>
      <path class="cls-3" d="M120.39,362.42s-5.21,1.07-8.4-.81c-3.19-1.89-5.52-7.41-5.52-7.41,0,0,6.33-.27,8.71,1.15s5.21,7.08,5.21,7.08Z"/>
    </g>
  </g>
  <g id="Nose_copy_8" data-name="Nose copy 8">
    <path class="cls-2" d="M163.05,275.46h-29.5c-4.62,0-8.37-3.75-8.37-8.37v-9.12c0-2.85,1.94-5.34,4.71-6.03l32.45-10.01,.71,33.53Z"/>
  </g>
  <g id="Layer_47_copy_8" data-name="Layer 47 copy 8">
    <polyline class="cls-5" points="171.7 246.89 163.5 243.02 171.7 240.22"/>
    <polyline class="cls-5" points="146.4 246.89 154.59 243.02 146.4 240.22"/>
  </g>
  <g id="Mouth_copy_8" data-name="Mouth copy 8">
    <line class="cls-4" x1="125.18" y1="260.21" x2="165.82" y2="260.21"/>
  </g>
  <g id="Nostrils_copy_8" data-name="Nostrils copy 8">
    <circle class="cls-4" cx="129.73" cy="254.85" r=".4"/>
    <circle class="cls-4" cx="140.27" cy="254.85" r=".4"/>
  </g>
  <g id="Sweat_copy_8" data-name="Sweat copy 8">
    <path class="cls-1" d="M179.09,238.88s-2.31,5.68-2.69,7.06c-.35,1.3,.57,3.62,2.69,3.62s3.16-2.42,2.76-3.62c-.69-2.05-2.76-7.06-2.76-7.06Z"/>
  </g>
</svg>