<?xml version="1.0" encoding="UTF-8"?>
<svg id="Meteor8" xmlns="http://www.w3.org/2000/svg" width="515.58" height="503.64" xmlns:xlink="http://www.w3.org/1999/xlink" viewBox="0 0 515.58 503.64">
  <defs>
    <style>
      .cls-1 {
        fill: none;
      }

      .cls-2 {
        clip-path: url(#clippath);
      }

      .cls-3 {
        fill: #fffad2;
      }

      .cls-4 {
        fill: #ffed43;
      }

      .cls-5 {
        fill: #ffbd39;
      }

      .cls-6 {
        fill: #ff4545;
      }
    </style>
    <clipPath id="clippath">
      <rect class="cls-1" x="-8.83" y="7.87" width="541.23" height="541.23" transform="translate(-46.41 52.44) rotate(-10.51)"/>
    </clipPath>
  </defs>
  <g class="cls-2">
    <g>
      <polyline class="cls-6" points="226.5 286.25 249.69 263.5 249.74 269.78 264.48 254.31 262.94 262.18 301.63 219.72 275.86 270.31 281.9 266.28 273.3 287.45 279.16 283.44 266.1 313.45 226.5 286.25"/>
      <circle class="cls-6" cx="244.75" cy="302.1" r="24.18"/>
      <polyline class="cls-5" points="231.81 289.9 250.68 274.95 251.22 281.1 265.21 271.49 261.3 288.36 267.26 284.97 261.31 308.38 231.81 289.9"/>
      <circle class="cls-5" cx="244.75" cy="302.1" r="17.79"/>
      <circle class="cls-4" cx="244.75" cy="302.1" r="11.48"/>
      <circle class="cls-3" cx="244.75" cy="302.1" r="5.3"/>
      <polygon class="cls-4" points="243.62 290.63 253.63 288.96 255.87 299.05 243.62 290.63"/>
    </g>
  </g>
</svg>