<?xml version="1.0" encoding="UTF-8"?>
<svg xmlns="http://www.w3.org/2000/svg" width="300" height="300" xmlns:xlink="http://www.w3.org/1999/xlink" viewBox="0 0 400 400">
  <defs>
    <style>
      .cls-1, .cls-2, .cls-3 {
        fill: none;
      }

      .cls-4 {
        fill: url(#linear-gradient);
      }

      .cls-5 {
        clip-path: url(#clippath);
      }

      .cls-6 {
        fill: #fffad2;
      }

      .cls-7 {
        fill: #ffed43;
      }

      .cls-8 {
        fill: #ffbd39;
      }

      .cls-9 {
        fill: #ff4545;
      }

      .cls-10 {
        fill: #fda4ff;
      }

      .cls-11 {
        fill: #ff8585;
      }

      .cls-12 {
        fill: #3030d1;
      }

      .cls-13 {
        fill: #e0beed;
      }

      .cls-14 {
        fill: #5050ff;
      }

      .cls-15 {
        fill: #35a070;
      }

      .cls-16 {
        fill: #fff;
      }

      .cls-16, .cls-2 {
        stroke: #000;
      }

      .cls-16, .cls-2, .cls-3 {
        stroke-linecap: round;
        stroke-miterlimit: 10;
        stroke-width: 2px;
      }

      .cls-17 {
        clip-path: url(#clippath-1);
      }

      .cls-18 {
        clip-path: url(#clippath-3);
      }

      .cls-19 {
        clip-path: url(#clippath-2);
      }

      .cls-3 {
        stroke: #35a070;
      }

      .cls-20 {
        fill: #00006f;
        opacity: .2;
      }

      .cls-21 {
        fill: url(#linear-gradient-2);
      }
    </style>
    <clipPath id="clippath">
      <rect class="cls-1" x="0" width="400" height="400"/>
    </clipPath>
    <clipPath id="clippath-1">
      <rect class="cls-1" x="0" y=".32" width="400" height="400" transform="translate(400 400.63) rotate(-180)"/>
    </clipPath>
    <linearGradient id="linear-gradient" x1="172.31" y1="262.5" x2="172.31" y2="199.13" gradientTransform="translate(400) rotate(-180) scale(1 -1)" gradientUnits="userSpaceOnUse">
      <stop offset="0" stop-color="#fbc5ff" stop-opacity="0"/>
      <stop offset="1" stop-color="#ffed43"/>
    </linearGradient>
    <clipPath id="clippath-2">
      <rect class="cls-1" x="0" y=".32" width="400" height="400"/>
    </clipPath>
    <linearGradient id="linear-gradient-2" x1="195.14" y1="277.41" x2="195.14" y2="194.47" gradientUnits="userSpaceOnUse">
      <stop offset="0" stop-color="#fbc5ff" stop-opacity="0"/>
      <stop offset="1" stop-color="#ff8585"/>
    </linearGradient>
    <clipPath id="clippath-3">
      <path class="cls-1" d="M134.54,222.75l3.48,20.33c.77,4.48,5.48,7.08,9.69,5.36,10.66-4.35,28.46-15.43,55.34-14.57,30.4,.97,41.7,3.48,73.14,38.41,29.44,32.72,39.28,61.19,86.24,79.85,3.04,1.21,1.7,5.95-1.58,5.95l-76.44-35.3c-8.29-2.93-11.92-3.72-20.59-2.26-12.86,2.17-33.8,1.86-54.91,1.86-16.38,0-42.65,1.06-66.51-3.59-27.65-5.39-47.52-29.76-47.72-57.92l-.23-32.45"/>
    </clipPath>
  </defs>
  <g id="BG_copy_6" data-name="BG copy 6">
    <rect class="cls-13" x="0" width="400" height="400"/>
  </g>
  <g id="Shadow">
    <rect class="cls-20" x="108.73" y="365.2" width="173.79" height="10.55" rx="5.28" ry="5.28"/>
  </g>
  <g id="Meteor8">
    <g class="cls-5">
      <g>
        <polyline class="cls-9" points="170.32 201.43 192.45 186.53 191.55 191.61 205.77 181.33 203.34 187.46 240.95 158.97 212.55 195.96 218.04 193.61 207.93 209.42 213.26 207.06 198.22 229.33 170.32 201.43"/>
        <circle class="cls-9" cx="182.68" cy="216.97" r="19.86"/>
        <polyline class="cls-8" points="174.06 205.17 191.54 195.93 191.05 200.98 203.79 195.32 198.1 208.35 203.42 206.51 195.1 224.51 174.06 205.17"/>
        <circle class="cls-8" cx="182.68" cy="216.97" r="14.61"/>
        <circle class="cls-7" cx="182.68" cy="216.97" r="9.43"/>
        <circle class="cls-6" cx="182.68" cy="216.97" r="4.35"/>
        <polygon class="cls-7" points="183.48 207.54 191.82 207.68 192.11 216.16 183.48 207.54"/>
      </g>
    </g>
  </g>
  <g id="Mountains2">
    <g class="cls-17">
      <path class="cls-4" d="M.34,230.57l48.37-27.89c3.67-2.12,8.26-3.32,13.03-3.43l5.48-.12c3.32-.07,6.63,.4,9.65,1.37l58.54,18.8c4.71,1.51,10.05,1.79,15.02,.77l28.6-5.84c4.6-.94,9.52-.78,13.97,.46l16.22,4.5c5.66,1.57,12.01,1.39,17.47-.5l19.39-6.69c5.01-1.73,10.8-2.03,16.13-.83l65.56,14.74c2.63,.59,5.4,.82,8.16,.68l29.11-1.48c2.83-.14,5.6-.68,8.13-1.57l44.78-15.8c1.24-.44,2.41-.95,3.5-1.55l5.42-2.94c13.25-7.2,32.71-1.48,34.54,10.16l5.11,32.54c1.4,8.89-8.66,16.65-21.51,16.57l-434.97-2.49c-18.44-.11-28.11-15.29-15.86-24.88l3.8-2.98c.72-.57,1.51-1.09,2.35-1.58Z"/>
    </g>
  </g>
  <g id="Mountains1">
    <g class="cls-19">
      <path class="cls-21" d="M416.13,235.62l-47.02-36.5c-3.57-2.77-8.03-4.35-12.66-4.48l-5.33-.15c-3.23-.09-6.44,.52-9.38,1.79l-56.9,24.6c-4.58,1.98-9.77,2.34-14.6,1.01l-27.8-7.64c-4.47-1.23-9.25-1.02-13.58,.6l-15.77,5.89c-5.5,2.05-11.67,1.82-16.98-.65l-18.85-8.76c-4.87-2.27-10.5-2.66-15.68-1.09l-63.72,19.29c-2.56,.77-5.25,1.08-7.93,.89l-28.3-1.94c-2.75-.19-5.44-.89-7.91-2.06l-43.52-20.68c-1.2-.57-2.34-1.25-3.4-2.03l-5.27-3.85c-12.88-9.42-31.79-1.93-33.57,13.3l-4.97,42.59c-1.36,11.64,8.42,21.79,20.91,21.69l422.8-3.26c17.92-.14,27.33-20.01,15.41-32.57l-3.7-3.9c-.7-.74-1.47-1.43-2.28-2.07Z"/>
    </g>
  </g>
  <g id="Leaf1">
    <g>
      <path class="cls-3" d="M45.18,251.46s-2.76-5.15-3.88-8.84c-1.24-4.1-1.5-7.28-1.5-7.28"/>
      <path class="cls-15" d="M43.96,266.74s-3.36-4.12-3.17-7.82,4.01-8.33,4.01-8.33c0,0,3.16,5.48,3.02,8.25-.14,2.77-3.86,7.9-3.86,7.9Z"/>
      <path class="cls-15" d="M58.49,258.57s-5.21,1.07-8.4-.81c-3.19-1.89-5.52-7.41-5.52-7.41,0,0,6.33-.27,8.71,1.15s5.21,7.08,5.21,7.08Z"/>
    </g>
  </g>
  <g id="Neck">
    <g id="Mane">
      <path class="cls-15" d="M121.13,135.03l14.4,2.28c3.01,.48,3.49,4.61,.67,5.76l-13.26,5.43-1.81-13.48Z"/>
      <path class="cls-15" d="M122.98,151.47l14.4,2.28c3.01,.48,3.49,4.61,.67,5.76l-13.26,5.43-1.81-13.48Z"/>
      <path class="cls-15" d="M124.85,167.91l14.4,2.28c3.01,.48,3.49,4.61,.67,5.76l-13.26,5.43-1.81-13.48Z"/>
      <path class="cls-15" d="M126.17,184.42l14.4,2.28c3.01,.48,3.49,4.61,.67,5.76l-13.26,5.43-1.81-13.48Z"/>
    </g>
    <path class="cls-14" d="M134.49,234.35l-12.03-99.67c-.81-5.59-5.6-9.74-11.24-9.74h-15.43c-4.78,0-9.05,2.99-10.68,7.48l-3.48,9.57c-1.01,2.79-.78,5.88,.63,8.49,.05,.09,.11,.17,.18,.24l10.48,10.48c.07,.07,.14,.16,.18,.25,.96,1.78,1.39,3.79,1.22,5.81l.13,62.44c-.5,6.05,3.96,10.97,10.02,10.97l21.18-.93c6.32,0,9.73,.86,8.83-5.4Z"/>
  </g>
  <g id="Body">
    <g id="Back_legs" data-name="Back legs">
      <path class="cls-12" d="M101.72,277.55l-2.11,84.1h0c-5.53,0-10.01,4.48-10.01,10.01v.1h23.75c5.79,0,10.68-4.3,11.41-10.05l8.99-84.17h-32.03Z"/>
      <path class="cls-12" d="M212.02,291.18l-2.11,70.39h0c-5.53,0-10.01,4.48-10.01,10.01v.1h23.75c5.79,0,10.68-4.3,11.41-10.05l8.99-70.45h-32.03Z"/>
    </g>
    <g id="Body-2" data-name="Body">
      <path class="cls-14" d="M133.12,222.75l2.42,12.95c.77,4.48,5.48,7.08,9.69,5.36,10.66-4.35,21.79-12.4,50.53-12.4,30.41,0,48.99,8.68,80.43,43.62,15.8,17.56,59.81,64.36,87.3,79.85,3.3,1.86,2.62,7.01-2.63,5.95l-84.33-39.96s-33.6,3.2-67.61,3.2c-16.38,0-42.65,2.11-66.51-2.54-27.65-5.39-47.52-29.76-47.72-57.92l-.23-32.45"/>
    </g>
    <g id="Belly">
      <g class="cls-18">
        <path class="cls-11" d="M94.56,243.86s6.5-4.69,12.06,7.65c2.85,6.32,3.18,28.28,6.97,34.42,4.62,7.48,14.77,12.08,18.91,14.89,4.29,2.92,9.39,4.4,14.57,4.4l122.78,4.22c.47,0,.93,0,1.4,0,9.97,.09,19.79,6.67,28.75,11.06l60.87,37.56-6.44,12.12-170.73-32.96-92.61-7.31-7.96-61.35,11.45-24.71Z"/>
      </g>
    </g>
    <g id="Legs">
      <path class="cls-14" d="M116.84,273.17l-2.11,92.54h0c-5.53,0-10.01,4.48-10.01,10.01v.1h23.75c5.79,0,10.68-4.3,11.41-10.05l8.99-92.61h-32.03Z"/>
      <path class="cls-14" d="M227.14,295.25l-2.11,70.39h0c-5.53,0-10.01,4.48-10.01,10.01v.1h23.75c5.79,0,10.68-4.3,11.41-10.05l8.99-70.45h-32.03Z"/>
    </g>
  </g>
  <g id="Nose">
    <path class="cls-14" d="M101.16,171.62h-29.5c-4.62,0-8.37-3.75-8.37-8.37v-9.12c0-2.85,1.94-5.34,4.71-6.03l32.45-10.01,.71,33.53Z"/>
  </g>
  <g id="Layer_47" data-name="Layer 47">
    <polyline class="cls-2" points="109.8 143.04 101.61 139.17 109.8 136.38"/>
    <polyline class="cls-2" points="84.5 143.04 92.7 139.17 84.5 136.38"/>
  </g>
  <g id="Mouth">
    <line class="cls-16" x1="63.29" y1="156.36" x2="103.93" y2="156.36"/>
  </g>
  <g id="Nostrils">
    <circle class="cls-16" cx="67.84" cy="151" r=".4"/>
    <circle class="cls-16" cx="78.37" cy="151" r=".4"/>
  </g>
  <g id="Sweat">
    <path class="cls-10" d="M117.2,135.03s-2.31,5.68-2.69,7.06c-.35,1.3,.57,3.62,2.69,3.62s3.16-2.42,2.76-3.62c-.69-2.05-2.76-7.06-2.76-7.06Z"/>
  </g>
</svg>