<?xml version="1.0" encoding="UTF-8"?>
<svg xmlns="http://www.w3.org/2000/svg" xmlns:xlink="http://www.w3.org/1999/xlink" viewBox="0 0 508.79 400.32">
  <defs>
    <style>
      .cls-1, .cls-2 {
        fill: none;
      }

      .cls-3 {
        fill: url(#linear-gradient);
      }

      .cls-4 {
        clip-path: url(#clippath);
      }

      .cls-5 {
        fill: #fff;
      }

      .cls-6 {
        fill: #000;
      }

      .cls-7 {
        fill: #fffad2;
      }

      .cls-8 {
        fill: #ffed43;
      }

      .cls-9 {
        fill: #ffbd39;
      }

      .cls-10 {
        fill: #ff4545;
      }

      .cls-11 {
        fill: #ff8585;
      }

      .cls-12 {
        fill: #3030d1;
      }

      .cls-13 {
        fill: #cde8b3;
      }

      .cls-14 {
        fill: #e0beed;
      }

      .cls-15 {
        fill: #433eff;
      }

      .cls-16 {
        fill: #35a070;
      }

      .cls-17 {
        fill: #2b4239;
      }

      .cls-6 {
        stroke: #000;
      }

      .cls-6, .cls-2 {
        stroke-linecap: round;
        stroke-miterlimit: 10;
        stroke-width: 2px;
      }

      .cls-18 {
        clip-path: url(#clippath-1);
      }

      .cls-19 {
        clip-path: url(#clippath-4);
      }

      .cls-20 {
        clip-path: url(#clippath-3);
      }

      .cls-21 {
        clip-path: url(#clippath-2);
      }

      .cls-2 {
        stroke: #35a070;
      }

      .cls-22 {
        fill: #00006f;
        opacity: .2;
      }

      .cls-23 {
        fill: url(#linear-gradient-2);
      }
    </style>
    <clipPath id="clippath">
      <rect class="cls-1" x="37.14" y=".32" width="400" height="400" transform="translate(474.28 400.63) rotate(-180)"/>
    </clipPath>
    <linearGradient id="linear-gradient" x1="204.45" y1="265.41" x2="204.45" y2="197.13" gradientTransform="translate(474.28) rotate(-180) scale(1 -1)" gradientUnits="userSpaceOnUse">
      <stop offset="0" stop-color="#fbc5ff" stop-opacity="0"/>
      <stop offset="1" stop-color="#ffed43"/>
    </linearGradient>
    <clipPath id="clippath-1">
      <rect class="cls-1" x="37.14" y=".32" width="400" height="400"/>
    </clipPath>
    <linearGradient id="linear-gradient-2" x1="232.28" y1="277.41" x2="232.28" y2="194.47" gradientUnits="userSpaceOnUse">
      <stop offset="0" stop-color="#fbc5ff" stop-opacity="0"/>
      <stop offset="1" stop-color="#ff8585"/>
    </linearGradient>
    <clipPath id="clippath-2">
      <path class="cls-1" d="M171.68,222.75l3.48,20.33c.77,4.48,5.48,7.08,9.69,5.36,10.66-4.35,28.46-15.43,55.34-14.57,30.4,.97,41.7,3.48,73.14,38.41,29.44,32.72,39.28,61.19,86.24,79.85,3.04,1.21,1.7,5.95-1.58,5.95l-76.44-35.3c-8.29-2.93-11.92-3.72-20.59-2.26-12.86,2.17-33.8,1.86-54.91,1.86-16.38,0-42.65,1.06-66.51-3.59-27.65-5.39-47.52-29.76-47.72-57.92l-.23-32.45"/>
    </clipPath>
    <clipPath id="clippath-3">
      <path class="cls-1" d="M128.01,131.4h0c2.78,0,5.04,2.26,5.04,5.04v4.13c0,.5-.41,.91-.91,.91h-9.18v-5.04c0-2.78,2.26-5.04,5.04-5.04Z"/>
    </clipPath>
    <clipPath id="clippath-4">
      <path class="cls-1" d="M143.36,131.4h0c2.78,0,5.04,2.26,5.04,5.04v5.04h-10.09v-5.04c0-2.78,2.26-5.04,5.04-5.04Z"/>
    </clipPath>
  </defs>
  <g id="BG_copy_4" data-name="BG copy 4">
    <rect class="cls-17" x="37.14" width="400" height="400"/>
  </g>
  <g id="BG_copy_3" data-name="BG copy 3">
    <rect class="cls-13" x="37.14" width="400" height="400"/>
  </g>
  <g id="BG_copy_6" data-name="BG copy 6">
    <rect class="cls-14" x="37.14" width="400" height="400"/>
  </g>
  <g id="Mountains2">
    <g class="cls-4">
      <path class="cls-3" d="M42.48,231.01l48.37-30.05c3.67-2.28,8.26-3.58,13.03-3.69l5.48-.13c3.32-.08,6.63,.43,9.65,1.47l58.54,20.25c4.71,1.63,10.05,1.92,15.02,.83l28.6-6.29c4.6-1.01,9.52-.84,13.97,.49l16.22,4.84c5.66,1.69,12.01,1.5,17.47-.53l19.39-7.21c5.01-1.87,10.8-2.19,16.13-.9l65.56,15.88c2.63,.64,5.4,.89,8.16,.74l29.11-1.6c2.83-.16,5.6-.73,8.13-1.7l44.78-17.02c1.24-.47,2.41-1.03,3.5-1.67l5.42-3.17c13.25-7.76,32.71-1.59,34.54,10.95l5.11,35.06c1.4,9.58-8.66,17.94-21.51,17.86l-434.97-2.69c-18.44-.11-28.11-16.47-15.86-26.81l3.8-3.21c.72-.61,1.51-1.18,2.35-1.7Z"/>
    </g>
  </g>
  <g id="Mountains1">
    <g class="cls-18">
      <path class="cls-23" d="M453.27,235.62l-47.02-36.5c-3.57-2.77-8.03-4.35-12.66-4.48l-5.33-.15c-3.23-.09-6.44,.52-9.38,1.79l-56.9,24.6c-4.58,1.98-9.77,2.34-14.6,1.01l-27.8-7.64c-4.47-1.23-9.25-1.02-13.58,.6l-15.77,5.89c-5.5,2.05-11.67,1.82-16.98-.65l-18.85-8.76c-4.87-2.27-10.5-2.66-15.68-1.09l-63.72,19.29c-2.56,.77-5.25,1.08-7.93,.89l-28.3-1.94c-2.75-.19-5.44-.89-7.91-2.06l-43.52-20.68c-1.2-.57-2.34-1.25-3.4-2.03l-5.27-3.85c-12.88-9.42-31.79-1.93-33.57,13.3L.13,255.72c-1.36,11.64,8.42,21.79,20.91,21.69l422.8-3.26c17.92-.14,27.33-20.01,15.41-32.57l-3.7-3.9c-.7-.74-1.47-1.43-2.28-2.07Z"/>
    </g>
  </g>
  <g id="Meteor">
    <g>
      <polyline class="cls-10" points="300.83 72.62 322.96 57.72 322.06 62.8 336.28 52.52 333.86 58.64 371.46 30.16 343.07 67.14 348.55 64.79 338.44 80.6 343.77 78.24 328.73 100.51 300.83 72.62"/>
      <circle class="cls-10" cx="313.19" cy="88.15" r="19.86"/>
      <polyline class="cls-9" points="304.57 76.36 322.05 67.11 321.56 72.16 334.3 66.5 328.61 79.54 333.93 77.69 325.62 95.7 304.57 76.36"/>
      <circle class="cls-9" cx="313.19" cy="88.15" r="14.61"/>
      <circle class="cls-8" cx="313.19" cy="88.15" r="9.43"/>
      <circle class="cls-7" cx="313.19" cy="88.15" r="4.35"/>
      <polygon class="cls-8" points="314 78.72 322.33 78.87 322.63 87.35 314 78.72"/>
    </g>
  </g>
  <g id="Leaf">
    <g>
      <path class="cls-2" d="M86.93,165.02s4.71-3.47,8.2-5.09c3.89-1.81,6.99-2.52,6.99-2.52"/>
      <path class="cls-16" d="M71.63,165.99s3.6-3.91,7.29-4.25,8.81,2.79,8.81,2.79c0,0-4.98,3.91-7.74,4.16-2.76,.25-8.36-2.7-8.36-2.7Z"/>
      <path class="cls-16" d="M81.78,179.21s-1.8-5-.39-8.43c1.41-3.43,6.55-6.52,6.55-6.52,0,0,1.16,6.22,.1,8.79s-6.27,6.16-6.27,6.16Z"/>
    </g>
  </g>
  <g id="Mane">
    <path class="cls-16" d="M158.27,135.03l14.4,2.28c3.01,.48,3.49,4.61,.67,5.76l-13.26,5.43-1.81-13.48Z"/>
    <path class="cls-16" d="M160.11,151.47l14.4,2.28c3.01,.48,3.49,4.61,.67,5.76l-13.26,5.43-1.81-13.48Z"/>
    <path class="cls-16" d="M161.99,167.91l14.4,2.28c3.01,.48,3.49,4.61,.67,5.76l-13.26,5.43-1.81-13.48Z"/>
    <path class="cls-16" d="M163.31,184.42l14.4,2.28c3.01,.48,3.49,4.61,.67,5.76l-13.26,5.43-1.81-13.48Z"/>
  </g>
  <g id="Neck">
    <path class="cls-15" d="M171.63,234.35l-12.03-99.67c-.81-5.59-5.6-9.74-11.24-9.74h-15.43c-4.78,0-9.05,2.99-10.68,7.48l-3.48,9.57c-1.01,2.79-.78,5.88,.63,8.49,.05,.09,.11,.17,.18,.24l10.48,10.48c.07,.07,.14,.16,.18,.25,.96,1.78,1.39,3.79,1.22,5.81l.13,62.44c-.5,6.05,3.96,10.97,10.02,10.97l21.18-.93c6.32,0,9.73,.86,8.83-5.4Z"/>
  </g>
  <g id="Shadow">
    <rect class="cls-22" x="145.87" y="359.34" width="173.79" height="16.41" rx="7.78" ry="7.78"/>
  </g>
  <g id="Back_legs" data-name="Back legs">
    <path class="cls-12" d="M138.86,277.55l-2.11,84.1h0c-5.53,0-10.01,4.48-10.01,10.01v.1h23.75c5.79,0,10.68-4.3,11.41-10.05l8.99-84.17h-32.03Z"/>
    <path class="cls-12" d="M249.16,291.18l-2.11,70.39h0c-5.53,0-10.01,4.48-10.01,10.01v.1h23.75c5.79,0,10.68-4.3,11.41-10.05l8.99-70.45h-32.03Z"/>
  </g>
  <g id="Body">
    <path class="cls-15" d="M170.26,222.75l2.42,12.95c.77,4.48,5.48,7.08,9.69,5.36,10.66-4.35,21.79-12.4,50.53-12.4,30.41,0,48.99,8.68,80.43,43.62,15.8,17.56,59.81,64.36,87.3,79.85,3.3,1.86,2.62,7.01-2.63,5.95l-84.33-39.96s-33.6,3.2-67.61,3.2c-16.38,0-42.65,2.11-66.51-2.54-27.65-5.39-47.52-29.76-47.72-57.92l-.23-32.45"/>
  </g>
  <g id="Belly">
    <g class="cls-21">
      <path class="cls-11" d="M131.7,243.86s6.5-4.69,12.06,7.65c2.85,6.32,3.18,28.28,6.97,34.42,4.62,7.48,14.77,12.08,18.91,14.89,4.29,2.92,9.39,4.4,14.57,4.4l122.78,4.22c.47,0,.93,0,1.4,0,9.97,.09,19.79,6.67,28.75,11.06l60.87,37.56-6.44,12.12-170.73-32.96-92.61-7.31-7.96-61.35,11.45-24.71Z"/>
    </g>
  </g>
  <g id="Legs">
    <path class="cls-15" d="M153.98,273.17l-2.11,92.54h0c-5.53,0-10.01,4.48-10.01,10.01v.1h23.75c5.79,0,10.68-4.3,11.41-10.05l8.99-92.61h-32.03Z"/>
    <path class="cls-15" d="M264.27,295.25l-2.11,70.39h0c-5.53,0-10.01,4.48-10.01,10.01v.1h23.75c5.79,0,10.68-4.3,11.41-10.05l8.99-70.45h-32.03Z"/>
  </g>
  <g id="Eyes">
    <g>
      <path class="cls-5" d="M128.01,131.4h0c2.78,0,5.04,2.26,5.04,5.04v4.13c0,.5-.41,.91-.91,.91h-8.03c-.64,0-1.15-.52-1.15-1.15v-3.89c0-2.78,2.26-5.04,5.04-5.04Z"/>
      <g class="cls-20">
        <ellipse cx="132.25" cy="137.14" rx="4.24" ry="5.38"/>
      </g>
    </g>
    <g>
      <path class="cls-5" d="M143.36,131.4h0c2.78,0,5.04,2.26,5.04,5.04v5.04h-10.09v-5.04c0-2.78,2.26-5.04,5.04-5.04Z"/>
      <g class="cls-19">
        <ellipse cx="147.6" cy="137.14" rx="4.24" ry="5.38"/>
      </g>
    </g>
  </g>
  <g id="Nose">
    <path class="cls-15" d="M138.3,171.62h-29.5c-4.62,0-8.37-3.75-8.37-8.37v-9.12c0-2.85,1.94-5.34,4.71-6.03l32.45-10.01,.71,33.53Z"/>
  </g>
  <g id="Teeth">
    <polyline class="cls-5" points="127.52 156.36 129.76 162.26 132.01 156.36 127.52 156.36"/>
    <polyline class="cls-5" points="133.05 156.36 135.3 162.26 137.54 156.36 133.05 156.36"/>
  </g>
  <g id="Mouth">
    <line class="cls-6" x1="100.43" y1="156.36" x2="141.07" y2="156.36"/>
  </g>
  <g id="Nostrils">
    <circle class="cls-6" cx="104.98" cy="151" r=".4"/>
    <circle class="cls-6" cx="115.51" cy="151" r=".4"/>
  </g>
</svg>